<svg width="24" height="24" viewBox="0 0 24 24" fill="none" xmlns="http://www.w3.org/2000/svg">
<g clip-path="url(#clip0_828_10143)">
<path d="M18.5 2.25H5.75C4.95435 2.25 4.19129 2.56607 3.62868 3.12868C3.06607 3.69129 2.75 4.45435 2.75 5.25V21C2.75 21.1989 2.82902 21.3897 2.96967 21.5303C3.11032 21.671 3.30109 21.75 3.5 21.75H17C17.1989 21.75 17.3897 21.671 17.5303 21.5303C17.671 21.3897 17.75 21.1989 17.75 21C17.75 20.8011 17.671 20.6103 17.5303 20.4697C17.3897 20.329 17.1989 20.25 17 20.25H4.25C4.25 19.8522 4.40804 19.4706 4.68934 19.1893C4.97064 18.908 5.35218 18.75 5.75 18.75H18.5C18.6989 18.75 18.8897 18.671 19.0303 18.5303C19.171 18.3897 19.25 18.1989 19.25 18V3C19.25 2.80109 19.171 2.61032 19.0303 2.46967C18.8897 2.32902 18.6989 2.25 18.5 2.25ZM17.75 17.25H5.75C5.22326 17.2493 4.70572 17.388 4.25 17.6522V5.25C4.25 4.85218 4.40804 4.47064 4.68934 4.18934C4.97064 3.90804 5.35218 3.75 5.75 3.75H17.75V17.25Z" fill="#444444"/>
</g>
<defs>
<clipPath id="clip0_828_10143">
<rect width="24" height="24" fill="white"/>
</clipPath>
</defs>
</svg>
