<svg width="60" height="61" viewBox="0 0 60 61" fill="none" xmlns="http://www.w3.org/2000/svg">
<path d="M16.5892 56.508C15.5871 56.508 14.626 56.11 13.9175 55.4014C13.2089 54.6928 12.8108 53.7317 12.8108 52.7297V40.8432C12.8108 40.6281 12.8962 40.4219 13.0483 40.2698C13.2003 40.1178 13.4066 40.0324 13.6216 40.0324C13.8366 40.0324 14.0429 40.1178 14.1949 40.2698C14.347 40.4219 14.4324 40.6281 14.4324 40.8432V52.7297C14.4144 53.0235 14.4567 53.3179 14.5567 53.5947C14.6567 53.8715 14.8124 54.125 15.014 54.3394C15.2157 54.5538 15.4591 54.7247 15.7293 54.8415C15.9995 54.9583 16.2908 55.0186 16.5851 55.0186C16.8795 55.0186 17.1707 54.9583 17.4409 54.8415C17.7111 54.7247 17.9545 54.5538 18.1562 54.3394C18.3579 54.125 18.5135 53.8715 18.6135 53.5947C18.7136 53.3179 18.7559 53.0235 18.7378 52.7297V29.054C18.7378 28.8389 18.8232 28.6327 18.9753 28.4806C19.1274 28.3286 19.3336 28.2432 19.5486 28.2432C19.7637 28.2432 19.9699 28.3286 20.122 28.4806C20.274 28.6327 20.3594 28.8389 20.3594 29.054V52.7297C20.3594 53.7303 19.9625 54.6902 19.2556 55.3985C18.5488 56.1069 17.5899 56.5059 16.5892 56.508Z" fill="#0A66C2"/>
<path d="M22.1837 42.6762C21.2712 42.6762 20.396 42.3143 19.75 41.6698C19.1039 41.0253 18.7399 40.1509 18.7378 39.2384V29.0546C18.7378 28.8396 18.8232 28.6333 18.9753 28.4813C19.1273 28.3292 19.3336 28.2438 19.5486 28.2438C19.7636 28.2438 19.9699 28.3292 20.1219 28.4813C20.274 28.6333 20.3594 28.8396 20.3594 29.0546V39.2384C20.3594 39.7222 20.5516 40.1862 20.8938 40.5284C21.2359 40.8705 21.6999 41.0627 22.1837 41.0627C22.6676 41.0627 23.1316 40.8705 23.4737 40.5284C23.8159 40.1862 24.0081 39.7222 24.0081 39.2384V25.9816C24.007 25.4922 23.9094 25.0078 23.7209 24.5562C23.5324 24.1045 23.2566 23.6945 22.9094 23.3495C22.5622 23.0046 22.1504 22.7315 21.6975 22.546C21.2447 22.3604 20.7596 22.266 20.2702 22.2681H6.95672C5.97249 22.2702 5.02919 22.6622 4.33323 23.3581C3.63728 24.0541 3.24535 24.9974 3.2432 25.9816V39.2384C3.2432 39.7222 3.43541 40.1862 3.77754 40.5284C4.11966 40.8705 4.58369 41.0627 5.06753 41.0627C5.55137 41.0627 6.01539 40.8705 6.35752 40.5284C6.69965 40.1862 6.89185 39.7222 6.89185 39.2384V29.0546C6.89185 28.8396 6.97728 28.6333 7.12933 28.4813C7.28139 28.3292 7.48762 28.2438 7.70266 28.2438C7.9177 28.2438 8.12394 28.3292 8.27599 28.4813C8.42805 28.6333 8.51347 28.8396 8.51347 29.0546V39.2384C8.51347 40.1523 8.15042 41.0288 7.50418 41.675C6.85794 42.3213 5.98145 42.6843 5.06753 42.6843C4.15361 42.6843 3.27712 42.3213 2.63088 41.675C1.98464 41.0288 1.62158 40.1523 1.62158 39.2384V25.9816C1.62373 24.5673 2.18651 23.2115 3.18658 22.2115C4.18664 21.2114 5.54241 20.6486 6.95672 20.6465H20.2702C21.6845 20.6486 23.0403 21.2114 24.0404 22.2115C25.0404 23.2115 25.6032 24.5673 25.6054 25.9816V39.2384C25.6033 40.1467 25.2426 41.0174 24.6018 41.6612C23.9611 42.305 23.092 42.6698 22.1837 42.6762Z" fill="#0A66C2"/>
<path d="M10.6621 56.508C9.66143 56.5059 8.70247 56.1069 7.99564 55.3985C7.28881 54.6902 6.89184 53.7303 6.89185 52.7297V29.054C6.89185 28.8389 6.97727 28.6327 7.12933 28.4806C7.28138 28.3286 7.48762 28.2432 7.70266 28.2432C7.9177 28.2432 8.12393 28.3286 8.27599 28.4806C8.42804 28.6327 8.51347 28.8389 8.51347 29.054V52.7297C8.51347 53.2995 8.73984 53.846 9.14279 54.249C9.54574 54.6519 10.0923 54.8783 10.6621 54.8783C11.232 54.8783 11.7785 54.6519 12.1814 54.249C12.5844 53.846 12.8108 53.2995 12.8108 52.7297V40.8432C12.8108 40.6281 12.8962 40.4219 13.0482 40.2698C13.2003 40.1178 13.4065 40.0324 13.6216 40.0324C13.8366 40.0324 14.0428 40.1178 14.1949 40.2698C14.347 40.4219 14.4324 40.6281 14.4324 40.8432V52.7297C14.4324 53.7303 14.0354 54.6902 13.3286 55.3985C12.6218 56.1069 11.6628 56.5059 10.6621 56.508Z" fill="#0A66C2"/>
<path d="M13.6215 18.4652C12.3386 18.4652 11.0845 18.0847 10.0178 17.372C8.9511 16.6592 8.11971 15.6462 7.62877 14.4609C7.13782 13.2757 7.00937 11.9715 7.25965 10.7132C7.50993 9.45497 8.12771 8.29919 9.03486 7.39204C9.94201 6.48489 11.0978 5.86711 12.356 5.61683C13.6143 5.36654 14.9185 5.495 16.1038 5.98594C17.289 6.47689 18.3021 7.30828 19.0148 8.37498C19.7276 9.44167 20.108 10.6958 20.108 11.9787C20.108 13.699 19.4246 15.3489 18.2081 16.5653C16.9917 17.7818 15.3418 18.4652 13.6215 18.4652ZM13.6215 7.04895C12.6593 7.04895 11.7187 7.33427 10.9187 7.86882C10.1187 8.40338 9.49516 9.16317 9.12695 10.0521C8.75874 10.941 8.6624 11.9192 8.85011 12.8629C9.03782 13.8066 9.50116 14.6734 10.1815 15.3538C10.8619 16.0342 11.7287 16.4975 12.6724 16.6852C13.6161 16.8729 14.5943 16.7766 15.4832 16.4084C16.3721 16.0402 17.1319 15.4166 17.6665 14.6166C18.201 13.8166 18.4864 12.876 18.4864 11.9138C18.4864 10.6236 17.9738 9.38617 17.0615 8.47383C16.1491 7.56149 14.9117 7.04895 13.6215 7.04895Z" fill="#0A66C2"/>
<path d="M55.135 34.3085C54.8922 34.31 54.6499 34.2828 54.4134 34.2274C53.9659 34.1225 53.5458 33.9237 53.181 33.6441C52.8161 33.3646 52.5149 33.0106 52.2972 32.6058L49.4594 27.3193C49.3572 27.1301 49.3344 26.908 49.396 26.702C49.4576 26.4959 49.5985 26.3228 49.7878 26.2207C49.977 26.1185 50.199 26.0957 50.4051 26.1573C50.6111 26.2189 50.7843 26.3598 50.8864 26.549L53.7567 31.8518C53.8675 32.0492 54.0185 32.2212 54.1998 32.3568C54.3812 32.4923 54.5889 32.5884 54.8097 32.6388C55.0304 32.6892 55.2592 32.6929 55.4815 32.6495C55.7037 32.6061 55.9144 32.5166 56.0999 32.3869C56.4341 32.1427 56.6623 31.7799 56.7377 31.3729C56.813 30.9658 56.7299 30.5454 56.5053 30.1977L51.3405 22.3734C50.6251 21.2861 49.6508 20.3936 48.5052 19.776C47.3596 19.1584 46.0784 18.8351 44.7769 18.8351C43.4754 18.8351 42.1943 19.1584 41.0487 19.776C39.9031 20.3936 38.9288 21.2861 38.2134 22.3734L33.0972 30.1572C32.932 30.4275 32.8495 30.7402 32.86 31.0569C32.8705 31.3735 32.9736 31.6802 33.1564 31.9389C33.3393 32.1976 33.5939 32.3971 33.8888 32.5128C34.1838 32.6284 34.5062 32.6551 34.8161 32.5896C35.036 32.5364 35.2418 32.4365 35.4195 32.2965C35.5972 32.1566 35.7426 31.98 35.8459 31.7788L38.5053 26.9139C38.6081 26.7265 38.7809 26.5872 38.9859 26.5265C39.1909 26.4657 39.4116 26.4884 39.5999 26.5896C39.7888 26.691 39.9298 26.8631 39.9921 27.0683C40.0544 27.2734 40.0329 27.4948 39.9323 27.6842L37.2972 32.5896C37.0808 32.9839 36.7847 33.3288 36.4278 33.6025C36.0708 33.8762 35.6609 34.0726 35.224 34.1794C34.7871 34.2861 34.3327 34.3008 33.8898 34.2226C33.4469 34.1443 33.0251 33.9748 32.6513 33.7247C31.9533 33.2459 31.4701 32.5132 31.305 31.683C31.1399 30.8528 31.3058 29.991 31.7675 29.2815L36.8837 21.5058C37.7454 20.1965 38.9184 19.1213 40.2976 18.3766C41.6768 17.6318 43.2192 17.2407 44.7866 17.2383C46.3541 17.2359 47.8976 17.6222 49.2791 18.3627C50.6606 19.1033 51.8369 20.1748 52.7026 21.4815L57.8432 29.3463C58.1482 29.8343 58.3179 30.3945 58.3349 30.9697C58.3519 31.5448 58.2156 32.1141 57.9399 32.6192C57.6643 33.1243 57.2592 33.547 56.7663 33.8438C56.2734 34.1407 55.7104 34.3011 55.135 34.3085Z" fill="#0A66C2"/>
<path d="M55.4595 43.5923H34.0946C33.6186 43.5923 33.1507 43.469 32.7364 43.2344C32.3221 42.9999 31.9757 42.662 31.7308 42.2538C31.4858 41.8456 31.3508 41.3809 31.3388 40.905C31.3268 40.4291 31.4382 39.9582 31.6622 39.5382L39.3892 25.2517C39.4907 25.0629 39.6628 24.9218 39.8679 24.8596C40.073 24.7973 40.2945 24.8187 40.4838 24.9193C40.5784 24.9695 40.6621 25.038 40.7301 25.1207C40.798 25.2034 40.849 25.2988 40.8799 25.4014C40.9108 25.5039 40.9211 25.6115 40.9101 25.718C40.8992 25.8246 40.8673 25.9279 40.8163 26.022L33.0892 40.3004C32.9966 40.4736 32.9505 40.668 32.9556 40.8644C32.9606 41.0608 33.0165 41.2526 33.1178 41.4209C33.2191 41.5893 33.3624 41.7284 33.5336 41.8248C33.7049 41.9211 33.8982 41.9714 34.0946 41.9706H55.4595C55.6572 41.9736 55.8521 41.9241 56.0244 41.8273C56.1967 41.7304 56.3403 41.5897 56.4406 41.4193C56.5404 41.2497 56.5931 41.0566 56.5931 40.8598C56.5931 40.6631 56.5404 40.4699 56.4406 40.3004L48.7379 26.0058C48.675 25.912 48.6324 25.8062 48.6127 25.6951C48.5931 25.5839 48.5969 25.4699 48.6238 25.3603C48.6508 25.2507 48.7003 25.1479 48.7693 25.0586C48.8383 24.9692 48.9251 24.8952 49.0243 24.8414C49.1235 24.7875 49.2329 24.755 49.3454 24.7458C49.4579 24.7367 49.5711 24.7511 49.6777 24.7882C49.7843 24.8253 49.8819 24.8843 49.9644 24.9613C50.047 25.0383 50.1125 25.1317 50.1568 25.2355L57.8919 39.522C58.116 39.942 58.2274 40.4129 58.2154 40.8888C58.2034 41.3647 58.0683 41.8294 57.8234 42.2376C57.5785 42.6458 57.232 42.9837 56.8178 43.2182C56.4035 43.4528 55.9356 43.576 55.4595 43.576V43.5923Z" fill="#0A66C2"/>
<path d="M47.4243 56.1031C46.5082 56.1031 45.6296 55.7392 44.9819 55.0915C44.3341 54.4437 43.9702 53.5652 43.9702 52.6491V42.7815C43.9702 42.5665 44.0556 42.3602 44.2077 42.2082C44.3598 42.0561 44.566 41.9707 44.781 41.9707H50.0675C50.2826 41.9707 50.4888 42.0561 50.6408 42.2082C50.7929 42.3602 50.8783 42.5665 50.8783 42.7815V52.6572C50.8762 53.5719 50.5113 54.4483 49.8638 55.0943C49.2163 55.7403 48.3389 56.1031 47.4243 56.1031ZM45.5918 43.5923V52.6572C45.5918 53.1432 45.7849 53.6093 46.1285 53.9529C46.4722 54.2966 46.9383 54.4896 47.4243 54.4896C47.9103 54.4896 48.3763 54.2966 48.72 53.9529C49.0636 53.6093 49.2567 53.1432 49.2567 52.6572V43.5923H45.5918Z" fill="#0A66C2"/>
<path d="M42.1621 56.1031C41.246 56.1031 40.3674 55.7392 39.7197 55.0915C39.0719 54.4437 38.708 53.5652 38.708 52.6491V42.7815C38.708 42.5665 38.7934 42.3602 38.9455 42.2082C39.0975 42.0561 39.3038 41.9707 39.5188 41.9707H44.8134C45.0285 41.9707 45.2347 42.0561 45.3867 42.2082C45.5388 42.3602 45.6242 42.5665 45.6242 42.7815V52.6572C45.6199 53.5726 45.2533 54.4491 44.6045 55.0948C43.9556 55.7406 43.0775 56.1031 42.1621 56.1031ZM40.2972 43.5923V52.6572C40.3282 53.1232 40.5351 53.5599 40.8761 53.879C41.2171 54.1981 41.6667 54.3756 42.1337 54.3756C42.6007 54.3756 43.0502 54.1981 43.3912 53.879C43.7322 53.5599 43.9392 53.1232 43.9702 52.6572V43.5923H40.2972Z" fill="#0A66C2"/>
<path d="M44.7812 18.806C43.4983 18.806 42.2442 18.4256 41.1775 17.7128C40.1108 17.0001 39.2794 15.987 38.7884 14.8018C38.2975 13.6165 38.169 12.3123 38.4193 11.054C38.6696 9.79579 39.2874 8.64001 40.1945 7.73286C41.1017 6.82571 42.2575 6.20793 43.5157 5.95765C44.774 5.70736 46.0782 5.83582 47.2634 6.32677C48.4487 6.81771 49.4617 7.6491 50.1745 8.7158C50.8872 9.7825 51.2677 11.0366 51.2677 12.3195C51.2677 14.0398 50.5843 15.6897 49.3678 16.9061C48.1514 18.1226 46.5015 18.806 44.7812 18.806ZM44.7812 7.45463C43.819 7.45463 42.8784 7.73995 42.0784 8.27451C41.2784 8.80907 40.6548 9.56886 40.2866 10.4578C39.9184 11.3467 39.8221 12.3249 40.0098 13.2686C40.1975 14.2123 40.6608 15.0791 41.3412 15.7595C42.0216 16.4398 42.8884 16.9032 43.8321 17.0909C44.7758 17.2786 45.7539 17.1823 46.6429 16.814C47.5318 16.4458 48.2916 15.8223 48.8262 15.0223C49.3607 14.2222 49.646 13.2817 49.646 12.3195C49.646 11.0293 49.1335 9.79186 48.2211 8.87952C47.3088 7.96718 46.0714 7.45463 44.7812 7.45463Z" fill="#0A66C2"/>
</svg>
