<svg width="24" height="25" viewBox="0 0 24 25" fill="none" xmlns="http://www.w3.org/2000/svg">
<path d="M22.5934 14.2245C22.3482 14.0354 22.067 13.8983 21.7671 13.8215C21.4671 13.7446 21.1547 13.7295 20.8488 13.7773C22.6094 11.9998 23.5 10.2326 23.5 8.50009C23.5 6.01853 21.5041 4.00009 19.0506 4.00009C18.3996 3.996 17.7556 4.13445 17.1638 4.40573C16.5721 4.67701 16.0468 5.07454 15.625 5.5704C15.2032 5.07454 14.6779 4.67701 14.0862 4.40573C13.4944 4.13445 12.8504 3.996 12.1994 4.00009C9.74594 4.00009 7.75 6.01853 7.75 8.50009C7.75 9.53134 8.05375 10.5335 8.69312 11.5938C8.16947 11.7265 7.69158 11.9987 7.31031 12.3813L5.18969 14.5001H2.5C2.10218 14.5001 1.72064 14.6581 1.43934 14.9394C1.15804 15.2207 1 15.6023 1 16.0001L1 19.7501C1 20.1479 1.15804 20.5294 1.43934 20.8107C1.72064 21.0921 2.10218 21.2501 2.5 21.2501H12.25C12.3113 21.2501 12.3724 21.2426 12.4319 21.2276L18.4319 19.7276C18.4701 19.7185 18.5075 19.7059 18.5434 19.6901L22.1875 18.1395L22.2288 18.1207C22.579 17.9457 22.8789 17.6844 23.1002 17.3615C23.3215 17.0385 23.457 16.6646 23.4939 16.2748C23.5307 15.885 23.4678 15.4923 23.3109 15.1336C23.154 14.7749 22.9084 14.462 22.5972 14.2245H22.5934ZM12.1994 5.50009C12.7803 5.49159 13.3505 5.65653 13.8371 5.97384C14.3238 6.29114 14.7047 6.74638 14.9313 7.28134C14.9878 7.4189 15.0839 7.53655 15.2074 7.61935C15.3309 7.70215 15.4763 7.74636 15.625 7.74636C15.7737 7.74636 15.9191 7.70215 16.0426 7.61935C16.1661 7.53655 16.2622 7.4189 16.3187 7.28134C16.5453 6.74638 16.9262 6.29114 17.4129 5.97384C17.8995 5.65653 18.4697 5.49159 19.0506 5.50009C20.6491 5.50009 22 6.87353 22 8.50009C22 10.3292 20.5197 12.3982 17.7194 14.4907L16.6797 14.7298C16.7709 14.3443 16.7738 13.9431 16.6879 13.5564C16.6021 13.1696 16.4298 12.8073 16.1841 12.4966C15.9383 12.1859 15.6254 11.9348 15.2688 11.7622C14.9122 11.5897 14.5212 11.5 14.125 11.5001H10.4388C9.62969 10.4088 9.25 9.44884 9.25 8.50009C9.25 6.87353 10.6009 5.50009 12.1994 5.50009ZM2.5 16.0001H4.75V19.7501H2.5V16.0001ZM21.5716 16.7698L18.0091 18.2866L12.1562 19.7501H6.25V15.5604L8.37156 13.4398C8.51035 13.2999 8.67555 13.189 8.85758 13.1135C9.03961 13.038 9.23482 12.9995 9.43188 13.0001H14.125C14.4234 13.0001 14.7095 13.1186 14.9205 13.3296C15.1315 13.5406 15.25 13.8267 15.25 14.1251C15.25 14.4235 15.1315 14.7096 14.9205 14.9206C14.7095 15.1316 14.4234 15.2501 14.125 15.2501H11.5C11.3011 15.2501 11.1103 15.3291 10.9697 15.4698C10.829 15.6104 10.75 15.8012 10.75 16.0001C10.75 16.199 10.829 16.3898 10.9697 16.5304C11.1103 16.6711 11.3011 16.7501 11.5 16.7501H14.5C14.5565 16.7499 14.6127 16.7436 14.6678 16.7313L20.9491 15.2866L20.9781 15.2791C21.1699 15.2259 21.3745 15.2455 21.5527 15.3341C21.7309 15.4227 21.87 15.574 21.9433 15.759C22.0167 15.944 22.0189 16.1496 21.9498 16.3362C21.8806 16.5228 21.7449 16.6772 21.5687 16.7698H21.5716Z" fill="#444444"/>
</svg>
