<svg width="24" height="25" viewBox="0 0 24 25" fill="none" xmlns="http://www.w3.org/2000/svg">
<path d="M20.5153 10.6961L13.0153 3.61983C13.0116 3.61663 13.0082 3.61319 13.005 3.60952C12.7289 3.35839 12.369 3.21924 11.9958 3.21924C11.6225 3.21924 11.2627 3.35839 10.9866 3.60952L10.9763 3.61983L3.48469 10.6961C3.33187 10.8366 3.20989 11.0073 3.12646 11.1974C3.04303 11.3875 2.99997 11.5929 3 11.8005V20.4676C3 20.8655 3.15804 21.247 3.43934 21.5283C3.72064 21.8096 4.10218 21.9676 4.5 21.9676H9C9.39782 21.9676 9.77936 21.8096 10.0607 21.5283C10.342 21.247 10.5 20.8655 10.5 20.4676V15.9676H13.5V20.4676C13.5 20.8655 13.658 21.247 13.9393 21.5283C14.2206 21.8096 14.6022 21.9676 15 21.9676H19.5C19.8978 21.9676 20.2794 21.8096 20.5607 21.5283C20.842 21.247 21 20.8655 21 20.4676V11.8005C21 11.5929 20.957 11.3875 20.8735 11.1974C20.7901 11.0073 20.6681 10.8366 20.5153 10.6961ZM19.5 20.4676H15V15.9676C15 15.5698 14.842 15.1883 14.5607 14.907C14.2794 14.6257 13.8978 14.4676 13.5 14.4676H10.5C10.1022 14.4676 9.72064 14.6257 9.43934 14.907C9.15804 15.1883 9 15.5698 9 15.9676V20.4676H4.5V11.8005L4.51031 11.7911L12 4.71764L19.4906 11.7892L19.5009 11.7986L19.5 20.4676Z" fill="#444444"/>
</svg>
