<svg width="60" height="61" viewBox="0 0 60 61" fill="none" xmlns="http://www.w3.org/2000/svg">
<g clip-path="url(#clip0_877_134)">
<path d="M23.3694 34.2177V42.6144C23.3694 43.096 23.7597 43.4865 24.2415 43.4865C24.7233 43.4865 25.1136 43.096 25.1136 42.6144V33.2107L27.7068 31.7135C28.1239 31.4727 28.2669 30.9393 28.026 30.5221C27.7853 30.1049 27.2516 29.962 26.8347 30.2029L25.1136 31.1966V24.0985C25.1136 23.6024 24.8175 23.1594 24.3593 22.9696C23.9009 22.7799 23.3784 22.8838 23.0283 23.2343L14.7117 31.5519C14.5422 31.7229 14.2981 31.8223 14.056 31.8223C13.502 31.8223 13.2685 31.407 13.2101 31.2796C13.1518 31.1523 12.9893 30.7041 13.3506 30.2842L22.759 19.3559C23.4784 18.5211 24.5227 18.0423 25.6241 18.0423H27.9766C28.9063 18.0423 29.6628 17.2859 29.6628 16.3562V14.8026H32.4536V16.3562C32.4536 16.8152 32.6384 17.2313 32.9369 17.5357L32.3768 17.8592C31.9596 18.1 31.8168 18.6335 32.0577 19.0506C32.3011 19.4722 32.8383 19.6074 33.2491 19.3697L35.5475 18.0423H36.4934C37.5942 18.0423 38.6379 18.5211 39.3572 19.3555L42.6549 23.1861C42.8274 23.3865 43.0711 23.4893 43.3163 23.4893C43.5178 23.4893 43.7204 23.4199 43.885 23.2781C44.25 22.9638 44.2912 22.4132 43.9769 22.0481L40.6789 18.2172C39.9954 17.4241 39.1108 16.8528 38.1336 16.5489L42.5025 14.0258C42.8711 14.3776 43.3238 14.6337 43.8298 14.7693C45.4286 15.1977 47.1701 14.2092 47.604 12.5902C48.0438 10.949 47.0663 9.25598 45.425 8.81606C43.7834 8.37627 42.0905 9.35377 41.6509 10.9952C41.5154 11.5005 41.5108 12.0202 41.6308 12.515L35.0803 16.298H34.1983V14.59C35.7192 14.0644 36.8149 12.6191 36.8149 10.9218V7.18585C36.8149 4.01194 34.2327 1.42969 31.0587 1.42969C28.5151 1.42969 26.353 3.08874 25.594 5.38109H17.8622C17.7217 4.90234 17.4632 4.45103 17.0862 4.07403C15.8845 2.87245 13.9297 2.87268 12.728 4.07403C11.5265 5.27562 11.5265 7.2305 12.728 8.43209C13.9296 9.63367 15.8845 9.63379 17.0862 8.43209C17.4631 8.0552 17.7216 7.60413 17.862 7.12538H25.3041C25.3039 7.14561 25.3026 7.16562 25.3026 7.18585V10.9218C25.3026 12.619 26.3981 14.0642 27.9188 14.5899V16.298H25.6245C24.015 16.298 22.4891 16.9976 21.4377 18.2176L12.029 29.1462C11.3385 29.9484 11.1836 31.0445 11.625 32.0068C12.0663 32.9689 12.998 33.5666 14.0563 33.5666C14.7559 33.5666 15.4561 33.2789 15.9476 32.7832L23.3697 25.3601V32.2038L13.0474 38.1632C12.6865 37.8189 12.237 37.5576 11.7223 37.4197C10.097 36.9842 8.38251 37.9779 7.94818 39.5987C7.51548 41.2134 8.50054 42.9371 10.127 43.3729C11.7274 43.8018 13.4565 42.8534 13.9012 41.1938C14.0393 40.6788 14.0375 40.1587 13.9197 39.6737L23.3694 34.2177ZM43.3354 11.4466C43.5286 10.7254 44.2755 10.3141 44.9732 10.5011C45.6856 10.6919 46.1097 11.4266 45.919 12.1388C45.7311 12.8401 44.9809 13.2719 44.2811 13.0843C43.5688 12.8935 43.1446 12.1588 43.3354 11.4466ZM16.2433 6.25428C16.243 6.59628 16.1127 6.93828 15.8523 7.19864C15.3311 7.72007 14.4824 7.71984 13.9611 7.19864C13.4397 6.67721 13.4397 5.82879 13.9611 5.30736C14.4824 4.78605 15.3308 4.78605 15.8523 5.30736C16.1127 5.56784 16.2431 5.90984 16.2433 6.25196V6.25324C16.2432 6.25358 16.2433 6.25393 16.2433 6.25428ZM27.0465 10.9218V7.18585C27.0465 7.16562 27.0478 7.14561 27.0481 7.12538H28.5499C29.0317 7.12538 29.422 6.73489 29.422 6.25324C29.422 5.77158 29.0317 5.38109 28.5499 5.38109H27.4772C28.1388 4.07322 29.4952 3.17398 31.0584 3.17398C33.2705 3.17398 35.0703 4.97374 35.0703 7.18585V10.9218C35.0703 12.0999 34.1119 13.0583 32.9338 13.0583H29.183C28.0049 13.0583 27.0465 12.0999 27.0465 10.9218ZM12.216 40.7422C12.0251 41.4544 11.2897 41.8784 10.5781 41.6877C9.86586 41.4969 9.44176 40.7622 9.63247 40.0499C9.82097 39.3463 10.5687 38.9165 11.2702 39.1044C11.9827 39.2952 12.4068 40.0299 12.216 40.7422ZM51.1948 37.2156C49.9931 36.0141 48.0383 36.014 46.8366 37.2156C46.4596 37.5926 46.2011 38.0438 46.0606 38.5226H38.7481V25.361L46.169 32.783C46.674 33.2882 47.346 33.5665 48.0613 33.5665C49.12 33.5665 50.0515 32.9687 50.4926 32.0063C50.9337 31.044 50.7783 29.9479 50.0875 29.1461L46.6341 25.135C46.3197 24.7698 45.7691 24.7289 45.4042 25.043C45.0392 25.3572 44.998 25.9079 45.3123 26.2729L48.7659 30.2846C49.1277 30.7044 48.9654 31.1523 48.9071 31.2796C48.8487 31.407 48.6153 31.8223 48.0614 31.8223C47.8121 31.8223 47.5783 31.7256 47.4025 31.5499L39.088 23.2341C38.7376 22.884 38.2159 22.78 37.7578 22.9696C37.2998 23.1594 37.0039 23.6025 37.0039 24.0986V38.5227H35.3734C34.8917 38.5227 34.5013 38.9132 34.5013 39.3949C34.5013 39.8765 34.8917 40.267 35.3734 40.267H37.0039V56.2448C37.0039 57.16 37.6217 57.9654 38.5081 58.2037L40.2405 58.6664C40.3815 58.7085 40.4495 58.7968 40.4495 58.9401C40.4495 59.0965 40.3227 59.2239 40.1669 59.2239H35.5176C35.3711 59.2239 35.25 59.1138 35.2355 58.9679L33.2841 39.0384C33.176 37.9077 32.19 37.0214 31.0581 37.0214C29.9018 37.0214 28.9447 37.8891 28.8318 39.04L26.8806 58.9676C26.8663 59.1138 26.745 59.2239 26.5985 59.2239H21.9505C21.7717 59.217 21.6668 59.1191 21.6668 58.9401C21.6668 58.8122 21.7538 58.6995 21.8768 58.6664L23.6115 58.2031C24.4958 57.9646 25.1136 57.1593 25.1136 56.2446V46.6845C25.1136 46.2029 24.7233 45.8124 24.2415 45.8124C23.7597 45.8124 23.3694 46.2029 23.3694 46.6845V56.2446C23.3694 56.3725 23.2823 56.4852 23.1593 56.5184L21.4252 56.9815C20.5405 57.2195 19.9225 58.025 19.9225 58.9401C19.9225 60.0409 20.8456 60.9742 21.9505 60.9682H26.5985C27.6466 60.9682 28.5142 60.1814 28.6165 59.1379L30.5677 39.2102C30.5926 38.9568 30.8034 38.7657 31.0581 38.7657C31.3068 38.7657 31.5246 38.9614 31.5483 39.21L33.4996 59.1382C33.6022 60.1814 34.4698 60.9682 35.5176 60.9682H40.1668C41.2843 60.9682 42.1936 60.0583 42.1936 58.9401C42.1936 58.0375 41.5642 57.2116 40.6906 56.9812L38.9594 56.5187C38.8349 56.4852 38.7481 56.3725 38.7481 56.2446V40.2669H46.0607C46.2012 40.7456 46.4597 41.1967 46.8366 41.5736C48.0382 42.7753 49.9932 42.7752 51.1948 41.5736C52.3962 40.372 52.3962 38.4172 51.1948 37.2156ZM49.9612 40.3402C49.44 40.8615 48.5913 40.8616 48.07 40.3402C47.5486 39.8188 47.5486 38.9703 48.07 38.4489C48.5915 37.9276 49.4398 37.9276 49.9612 38.4489C50.4827 38.9704 50.4827 39.8188 49.9612 40.3402Z" fill="#0A66C2"/>
</g>
<defs>
<clipPath id="clip0_877_134">
<rect width="60" height="60" fill="white" transform="translate(0 0.967773)"/>
</clipPath>
</defs>
</svg>
