<svg width="24" height="24" viewBox="0 0 24 24" fill="none" xmlns="http://www.w3.org/2000/svg">
<g id="MagnifyingGlass">
<path id="Vector" d="M21.4335 20.4137L16.935 15.9161C18.2389 14.3508 18.8891 12.343 18.7503 10.3105C18.6115 8.27802 17.6945 6.37727 16.19 5.00366C14.6855 3.63005 12.7094 2.88935 10.6727 2.93564C8.63597 2.98193 6.69552 3.81164 5.25499 5.25218C3.81445 6.69271 2.98473 8.63317 2.93845 10.6699C2.89216 12.7066 3.63286 14.6827 5.00647 16.1872C6.38008 17.6917 8.28083 18.6087 10.3133 18.7475C12.3458 18.8862 14.3536 18.2361 15.9189 16.9322L20.4165 21.4307C20.4833 21.4975 20.5626 21.5505 20.6498 21.5866C20.7371 21.6228 20.8306 21.6414 20.925 21.6414C21.0195 21.6414 21.113 21.6228 21.2002 21.5866C21.2875 21.5505 21.3667 21.4975 21.4335 21.4307C21.5003 21.3639 21.5533 21.2847 21.5894 21.1974C21.6256 21.1102 21.6442 21.0166 21.6442 20.9222C21.6442 20.8278 21.6256 20.7342 21.5894 20.647C21.5533 20.5597 21.5003 20.4805 21.4335 20.4137ZM4.39376 10.8597C4.39376 9.5803 4.77315 8.32964 5.48394 7.26586C6.19474 6.20208 7.20502 5.37296 8.38703 4.88336C9.56904 4.39375 10.8697 4.26565 12.1245 4.51525C13.3793 4.76485 14.5319 5.38093 15.4366 6.2856C16.3413 7.19028 16.9574 8.3429 17.207 9.59771C17.4566 10.8525 17.3285 12.1532 16.8389 13.3352C16.3493 14.5172 15.5201 15.5275 14.4564 16.2383C13.3926 16.9491 12.1419 17.3285 10.8625 17.3285C9.14747 17.3266 7.50323 16.6444 6.29051 15.4317C5.0778 14.219 4.39566 12.5747 4.39376 10.8597Z" fill="white"/>
</g>
</svg>
