<svg width="60" height="61" viewBox="0 0 60 61" fill="none" xmlns="http://www.w3.org/2000/svg">
<g clip-path="url(#clip0_900_710)">
<path d="M25.793 60.041L23.5195 49.0383C23.5078 48.9677 23.5078 48.8852 23.5195 48.8145C24.9258 40.6391 19.5352 36.092 19.4766 36.0449C19.4297 35.9978 19.3828 35.9506 19.3477 35.8917L13.7344 26.6797C13.207 25.808 12.1055 25.5252 11.2266 26.0318C10.3828 26.5148 10.0547 27.5868 10.4766 28.4585L14.7891 37.4821C14.8711 37.647 14.8711 37.8355 14.7891 37.9886C14.707 38.1417 14.5664 38.2713 14.3906 38.3067C12.4219 38.7661 10.582 38.2124 9.07031 36.6928C7.95703 35.5855 7.41797 34.3485 7.39453 34.2896C7.38281 34.2661 7.38281 34.2543 7.37109 34.2307L4.94531 26.4677C4.93359 26.4205 4.92188 26.3734 4.92188 26.3381C4.73438 23.5226 3.83203 18.7399 2.21484 17.88C2.00391 17.7739 1.67578 17.6561 1.17188 17.8682V26.2321L3.67969 38.7896L14.8125 51.2766C14.8945 51.3708 14.9531 51.5004 14.9648 51.63L15.4922 59.876L14.3203 59.9467L13.8047 51.9009L2.69531 39.4611C2.625 39.3786 2.57812 39.2844 2.55469 39.1784L0.0117188 26.4088C0 26.3734 0 26.3263 0 26.291V17.5148C0 17.3027 0.105469 17.1143 0.292969 17.0082C1.38281 16.3603 2.23828 16.5606 2.76562 16.8433C5.41406 18.2451 6.01172 25.1012 6.08203 26.1849L8.46094 33.8773C8.625 34.2425 10.207 37.541 13.3711 37.3054L9.41016 28.9886C8.73047 27.5514 9.26953 25.8198 10.6406 25.0305C12.0703 24.2059 13.875 24.6653 14.7305 26.0789L20.2969 35.2085C20.625 35.503 21.9023 36.6928 23.0391 38.7425C24.2109 40.8629 25.4531 44.3499 24.6914 48.9088L26.9414 59.8054L25.793 60.041Z" fill="#444444"/>
<path d="M34.207 60.041L33.0586 59.8054L35.3086 48.9088C34.5469 44.3499 35.7891 40.8629 36.9609 38.7425C38.0977 36.6928 39.375 35.503 39.7031 35.2085L45.2695 26.0789C46.1367 24.6653 47.9297 24.1941 49.3594 25.0305C50.7305 25.8198 51.2695 27.5632 50.5898 28.9886L46.6172 37.3054C49.7812 37.541 51.3633 34.2425 51.5273 33.8773L53.9062 26.1849C53.9883 25.1012 54.5859 18.2451 57.2227 16.8433C57.75 16.5606 58.6055 16.3603 59.6953 17.0082C59.8711 17.1143 59.9883 17.3027 59.9883 17.5148V26.3027C59.9883 26.3381 59.9883 26.3852 59.9766 26.4205L57.4453 39.1902C57.4219 39.2962 57.375 39.3904 57.3047 39.4729L46.1953 51.9127L45.6797 59.9585L44.5078 59.8878L45.0352 51.6417C45.0469 51.5122 45.0938 51.3826 45.1875 51.2883L56.3203 38.8014L58.8281 26.2438V17.88C58.3242 17.6679 57.9961 17.7739 57.7852 17.8917C56.1797 18.7517 55.2656 23.5344 55.0781 26.3499C55.0781 26.397 55.0664 26.4441 55.0547 26.4794L52.6406 34.2661C52.6289 34.2896 52.6289 34.3014 52.6172 34.325C52.5938 34.3721 52.0547 35.609 50.9414 36.7281C49.418 38.2478 47.5781 38.8014 45.6211 38.342C45.4453 38.3067 45.3047 38.1889 45.2227 38.0239C45.1406 37.859 45.1406 37.6705 45.2227 37.5174L49.5352 28.4938C49.957 27.6103 49.6289 26.5501 48.7852 26.0671C47.9062 25.5606 46.8047 25.8433 46.2773 26.715L40.6641 35.9271C40.6289 35.986 40.582 36.0331 40.5352 36.0802C40.5234 36.092 39.1523 37.2465 37.9687 39.3904C36.3984 42.253 35.9062 45.4336 36.4922 48.8499C36.5039 48.9205 36.5039 49.003 36.4922 49.0737L34.207 60.041Z" fill="#444444"/>
<path d="M33.6328 32.4993C33.1172 32.4993 32.6133 32.4286 32.168 32.2755L32.5313 31.1564C32.8711 31.2624 33.2461 31.3213 33.6445 31.3213C37.3242 31.3213 38.1914 27.9404 38.2266 27.799C38.2852 27.5752 38.4727 27.3985 38.707 27.3514C43.7578 26.5268 44.0508 21.0137 44.0625 20.7781C44.0742 20.5543 44.2031 20.354 44.4023 20.2598C44.5078 20.2126 46.9922 19.0229 46.9922 15.9954C46.9922 13.0268 44.7539 12.2257 44.6602 12.1904C44.4258 12.1079 44.2734 11.8959 44.2617 11.6603C44.1445 8.8684 43.2422 6.88934 41.5781 5.80557C40.3594 5.00453 39.1875 4.99275 39.1758 4.99275C38.9297 4.99275 38.6953 4.82782 38.625 4.59222C38.5547 4.47442 37.4648 1.37625 34.1953 1.37625C31.1602 1.37625 30.6445 4.10924 30.5859 4.46264V29.3776C30.5859 29.4365 30.5742 29.4954 30.5625 29.5425C30.2578 30.5674 28.9922 32.5111 26.3672 32.5111C22.5703 32.5111 21.1523 29.5307 20.7656 28.4705C18.4453 27.9875 16.6875 26.5503 15.6563 24.2886C15.0703 22.9927 14.8711 21.7676 14.8125 21.1904C13.9805 20.7074 11.8477 19.1524 11.8477 16.0189C11.8477 13.2742 13.4766 11.7899 14.6016 11.248C14.8594 7.51369 16.4648 5.69955 17.8008 4.82782C18.8555 4.1328 19.8984 3.92076 20.4375 3.86186C20.9062 2.86055 22.4414 0.198242 25.8047 0.198242C26.5313 0.198242 27.2344 0.351384 27.8906 0.645886L27.4102 1.71788C26.8945 1.48227 26.3672 1.37625 25.8047 1.37625C22.5352 1.37625 21.4453 4.47442 21.3984 4.604C21.3164 4.8396 21.0938 5.00453 20.8477 5.00453C20.6484 5.00453 16.0313 5.12233 15.7617 11.6721C15.75 11.9194 15.5859 12.1315 15.3633 12.2022C15.2695 12.2375 13.0312 13.0386 13.0312 16.0071C13.0312 19.0346 15.5156 20.2244 15.6328 20.2715C15.832 20.3658 15.9609 20.566 15.9727 20.7899C15.9844 21.0255 16.2773 26.5386 21.3281 27.3632C21.5625 27.3985 21.75 27.5752 21.8086 27.8108C21.8438 27.9522 22.7109 31.3331 26.3906 31.3331C28.5586 31.3331 29.2969 29.6485 29.4375 29.2833V4.4273C29.4375 4.40374 29.4375 4.38018 29.4375 4.35662C29.5898 2.90767 30.8203 0.198242 34.1953 0.198242C37.5586 0.198242 39.1055 2.86055 39.5625 3.86186C40.1133 3.93254 41.1445 4.14458 42.1992 4.82782C43.5352 5.69955 45.1406 7.51369 45.3984 11.248C46.5234 11.7899 48.1523 13.2742 48.1523 16.0189C48.1523 19.1524 46.0078 20.7074 45.1875 21.1904C45.1289 21.7676 44.9297 22.9927 44.3438 24.2886C43.3125 26.5386 41.5547 27.9875 39.2344 28.4705C38.8477 29.5307 37.4297 32.4993 33.6328 32.4993Z" fill="#444444"/>
<path d="M25.3945 7.86717C25.3477 7.74937 24.2578 5.01639 20.8594 5.01639V3.83838C25.0781 3.83838 26.4375 7.30173 26.4961 7.44309L25.3945 7.86717Z" fill="#444444"/>
<path d="M18.75 16.9378C16.6406 16.9378 14.5781 14.3344 14.5781 11.625H15.75C15.75 13.981 17.3438 15.7598 18.75 15.7598V16.9378Z" fill="#444444"/>
<path d="M25.9336 13.7219C22.4766 13.7219 21.0117 9.78738 20.9414 9.62246L22.043 9.21016C22.0547 9.2455 23.2969 12.5439 25.9336 12.5439C28.2422 12.5439 29.4141 11.2717 29.4141 8.79785H30.5859C30.5859 11.8607 28.8867 13.7219 25.9336 13.7219Z" fill="#444444"/>
<path d="M17.3906 21.7442C16.1719 21.7442 15.2227 21.379 15.1641 21.3555L15.5859 20.2599C15.6094 20.2717 17.5078 20.9785 19.1602 20.1892C20.1445 19.718 20.8594 18.7874 21.3047 17.4209L22.418 17.7861C21.8789 19.4706 20.9531 20.6486 19.6523 21.2612C18.8789 21.6264 18.082 21.7442 17.3906 21.7442Z" fill="#444444"/>
<path d="M21.2109 28.5293V27.3513C24.2578 27.3513 25.0312 24.6066 25.043 24.583L26.168 24.9011C25.8164 26.1615 24.375 28.5293 21.2109 28.5293Z" fill="#444444"/>
<path d="M30.5859 24.701H29.4141C29.4141 23.2874 28.6523 21.8384 27.5625 21.3083C26.4961 20.79 25.1953 21.1316 23.7773 22.2743L23.0508 21.3554C25.3125 19.5413 27.0352 19.7416 28.0781 20.2481C29.8125 21.0845 30.5859 23.1696 30.5859 24.701Z" fill="#444444"/>
<path d="M34.6055 7.86717L33.5039 7.44309C33.5625 7.28995 34.9219 3.83838 39.1406 3.83838V5.01639C35.7422 5.00461 34.6172 7.83183 34.6055 7.86717Z" fill="#444444"/>
<path d="M41.25 16.9378V15.7598C42.6562 15.7598 44.25 13.981 44.25 11.625H45.4219C45.4219 14.3344 43.3594 16.9378 41.25 16.9378Z" fill="#444444"/>
<path d="M34.0664 13.7219C31.1133 13.7219 29.4141 11.8607 29.4141 8.79785H30.5859C30.5859 11.2717 31.7578 12.5439 34.0664 12.5439C36.7031 12.5439 37.9453 9.2455 37.957 9.21016L39.0586 9.62246C38.9883 9.78738 37.5234 13.7219 34.0664 13.7219Z" fill="#444444"/>
<path d="M42.6094 21.7442C41.9062 21.7442 41.1211 21.6264 40.3477 21.2612C39.0586 20.6369 38.1328 19.4706 37.582 17.7861L38.6953 17.4209C39.1289 18.7874 39.8555 19.718 40.8398 20.1892C42.4922 20.9785 44.3906 20.2717 44.4141 20.2599L44.8359 21.3555C44.7773 21.3908 43.8398 21.7442 42.6094 21.7442Z" fill="#444444"/>
<path d="M38.7891 28.5293C35.625 28.5293 34.1836 26.1498 33.832 24.9011L34.957 24.583C34.9922 24.689 35.7422 27.3513 38.7891 27.3513V28.5293Z" fill="#444444"/>
<path d="M30.5859 24.7007H29.4141C29.4141 23.1692 30.1875 21.0842 31.9219 20.2478C32.9648 19.7412 34.6875 19.5292 36.9492 21.3433L36.2227 22.274C34.8047 21.1431 33.4922 20.7897 32.4375 21.308C31.3477 21.8381 30.5859 23.2871 30.5859 24.7007Z" fill="#444444"/>
</g>
<defs>
<clipPath id="clip0_900_710">
<rect width="60" height="60.3141" fill="white" transform="translate(0 0.198242)"/>
</clipPath>
</defs>
</svg>
