<svg width="24" height="25" viewBox="0 0 24 25" fill="none" xmlns="http://www.w3.org/2000/svg">
<path d="M20.8472 15.8232L16.4306 13.8441L16.4184 13.8385C16.1892 13.7405 15.939 13.7011 15.6907 13.724C15.4424 13.7469 15.2037 13.8314 14.9963 13.9698C14.9718 13.9859 14.9484 14.0034 14.9259 14.0223L12.6441 15.9676C11.1984 15.2654 9.70595 13.7841 9.00376 12.3573L10.9519 10.0407C10.9706 10.0173 10.9884 9.99383 11.0053 9.96852C11.1407 9.76162 11.2229 9.52445 11.2445 9.27812C11.2661 9.03179 11.2264 8.78395 11.1291 8.55665V8.5454L9.14438 4.12133C9.0157 3.82439 8.79444 3.57704 8.51362 3.41618C8.2328 3.25533 7.9075 3.18961 7.58626 3.22883C6.31592 3.396 5.14986 4.01987 4.30588 4.98392C3.4619 5.94798 2.99771 7.18629 3.00001 8.46758C3.00001 15.9113 9.05626 21.9676 16.5 21.9676C17.7813 21.9699 19.0196 21.5057 19.9837 20.6617C20.9477 19.8177 21.5716 18.6517 21.7388 17.3813C21.7781 17.0602 21.7125 16.735 21.5518 16.4542C21.3911 16.1734 21.144 15.952 20.8472 15.8232ZM16.5 20.4676C13.3185 20.4641 10.2682 19.1987 8.01856 16.949C5.76888 14.6993 4.50348 11.6491 4.50001 8.46758C4.49648 7.5521 4.82631 6.66664 5.42789 5.97656C6.02947 5.28648 6.86167 4.83896 7.76907 4.71758C7.7687 4.72132 7.7687 4.72509 7.76907 4.72883L9.73782 9.13508L7.80001 11.4545C7.78034 11.4771 7.76247 11.5012 7.74657 11.5266C7.60549 11.7431 7.52273 11.9924 7.5063 12.2503C7.48988 12.5081 7.54035 12.7659 7.65282 12.9985C8.5022 14.7357 10.2525 16.4729 12.0084 17.3213C12.2428 17.4328 12.502 17.4815 12.7608 17.4627C13.0196 17.444 13.2692 17.3585 13.485 17.2145C13.5091 17.1982 13.5322 17.1807 13.5544 17.162L15.8334 15.2176L20.2397 17.191C20.2397 17.191 20.2472 17.191 20.25 17.191C20.1301 18.0997 19.6833 18.9336 18.9931 19.5367C18.3028 20.1397 17.4166 20.4707 16.5 20.4676Z" fill="#444444"/>
</svg>
