<svg width="24" height="25" viewBox="0 0 24 25" fill="none" xmlns="http://www.w3.org/2000/svg">
<path d="M12 2.30078C10.0716 2.30078 8.18657 2.87261 6.58319 3.94395C4.97982 5.0153 3.73013 6.53804 2.99218 8.31962C2.25422 10.1012 2.06114 12.0616 2.43735 13.9529C2.81355 15.8442 3.74215 17.5815 5.10571 18.9451C6.46928 20.3086 8.20656 21.2372 10.0979 21.6134C11.9892 21.9896 13.9496 21.7966 15.7312 21.0586C17.5127 20.3207 19.0355 19.071 20.1068 17.4676C21.1782 15.8642 21.75 13.9791 21.75 12.0508C21.7473 9.46576 20.7192 6.98739 18.8913 5.1595C17.0634 3.33162 14.585 2.30351 12 2.30078ZM12 20.3008C10.3683 20.3008 8.77326 19.8169 7.41655 18.9104C6.05984 18.0039 5.00242 16.7154 4.378 15.2079C3.75358 13.7004 3.5902 12.0416 3.90853 10.4413C4.22685 8.84094 5.01259 7.37093 6.16637 6.21715C7.32016 5.06337 8.79017 4.27763 10.3905 3.9593C11.9909 3.64097 13.6497 3.80435 15.1571 4.42878C16.6646 5.0532 17.9531 6.11062 18.8596 7.46733C19.7661 8.82403 20.25 10.4191 20.25 12.0508C20.2475 14.2381 19.3775 16.335 17.8309 17.8817C16.2843 19.4283 14.1873 20.2983 12 20.3008ZM15.4163 11.4264L10.9163 8.42641C10.8033 8.35103 10.672 8.30774 10.5363 8.30117C10.4006 8.2946 10.2657 8.32499 10.146 8.38909C10.0263 8.45319 9.9262 8.5486 9.85645 8.66514C9.78671 8.78168 9.74992 8.91497 9.75 9.05078V15.0508C9.74992 15.1866 9.78671 15.3199 9.85645 15.4364C9.9262 15.553 10.0263 15.6484 10.146 15.7125C10.2657 15.7766 10.4006 15.807 10.5363 15.8004C10.672 15.7938 10.8033 15.7505 10.9163 15.6752L15.4163 12.6752C15.5191 12.6067 15.6035 12.5139 15.6618 12.4049C15.7202 12.296 15.7507 12.1744 15.7507 12.0508C15.7507 11.9272 15.7202 11.8055 15.6618 11.6966C15.6035 11.5877 15.5191 11.4949 15.4163 11.4264ZM11.25 13.6492V10.457L13.6481 12.0508L11.25 13.6492Z" fill="white"/>
</svg>
